<?xml version="1.0" encoding="UTF-8" standalone="no"?>
<!DOCTYPE svg PUBLIC "-//W3C//DTD SVG 1.1//EN" "http://www.w3.org/Graphics/SVG/1.1/DTD/svg11.dtd">
<svg xmlns="http://www.w3.org/2000/svg" version="1.1" xmlns:dc="http://purl.org/dc/elements/1.1/" xmlns:xl="http://www.w3.org/1999/xlink" viewBox=".15332031 10 430.8467 179.7963" width="430.8467" height="179.7963">
  <defs>
    <marker orient="auto" overflow="visible" markerUnits="strokeWidth" id="SharpArrow_Marker" stroke-linejoin="miter" stroke-miterlimit="10" viewBox="-4 -4 10 8" markerWidth="10" markerHeight="8" color="#a5a5a5">
      <g>
        <path d="M 5 0 L -3 -3 L 0 0 L 0 0 L -3 3 Z" fill="currentColor" stroke="currentColor" stroke-width="1"/>
      </g>
    </marker>
  </defs>
  <g id="Compressed_Dark" fill-opacity="1" stroke-dasharray="none" stroke="none" fill="none" stroke-opacity="1">
    <title>Compressed Dark</title>
    <g id="Compressed_Dark_Layer_1">
      <title>Layer 1</title>
      <g id="Graphic_2">
        <text transform="translate(12.665527 10)" fill="white">
          <tspan font-family="Helvetica" font-size="14" fill="white" x="0" y="14">Collections</tspan>
        </text>
      </g>
      <g id="Graphic_3">
        <text transform="translate(188.62677 10)" fill="white">
          <tspan font-family="Helvetica" font-size="14" fill="white" x="0" y="14">Items</tspan>
        </text>
      </g>
      <g id="Graphic_4">
        <text transform="translate(356.8208 10)" fill="white">
          <tspan font-family="Helvetica" font-size="14" fill="white" x="0" y="14">Tokens</tspan>
        </text>
      </g>
      <g id="Graphic_5">
        <path d="M 10.65332 90.8 L 83.15332 90.8 C 88.67617 90.8 93.15332 95.27715 93.15332 100.8 L 93.15332 123.33114 C 93.15332 128.85399 88.67617 133.33114 83.15332 133.33114 L 10.65332 133.33114 C 5.130473 133.33114 .6533203 128.85399 .6533203 123.33114 L .6533203 100.8 C .6533203 95.27715 5.130473 90.8 10.65332 90.8 Z" stroke="#929292" stroke-linecap="round" stroke-linejoin="round" stroke-width="1"/>
      </g>
      <g id="Graphic_7">
        <circle cx="21.676708" cy="104.1805" r="6.00000958741137" fill="#ffd92f"/>
      </g>
      <g id="Graphic_8">
        <circle cx="73.19297" cy="119.22939" r="6.00000958741137" fill="#65c2a6"/>
      </g>
      <g id="Graphic_9">
        <circle cx="35.68776" cy="119.22939" r="6.00000958741138" fill="#b3b3b3"/>
      </g>
      <g id="Graphic_10">
        <circle cx="53.48756" cy="104.1805" r="6.00000958741138" fill="#a6d853"/>
      </g>
      <g id="Graphic_16">
        <path d="M 10.65332 34.78949 L 83.15332 34.78949 C 88.67617 34.78949 93.15332 39.266644 93.15332 44.78949 L 93.15332 67.32063 C 93.15332 72.84348 88.67617 77.32063 83.15332 77.32063 L 10.65332 77.32063 C 5.130473 77.32063 .6533203 72.84348 .6533203 67.32063 L .6533203 44.78949 C .6533203 39.266644 5.130473 34.78949 10.65332 34.78949 Z" stroke="#929292" stroke-linecap="round" stroke-linejoin="round" stroke-width="1"/>
      </g>
      <g id="Graphic_14">
        <circle cx="69.649255" cy="48.740464" r="6.00000958741137" fill="#8da0cb"/>
      </g>
      <g id="Graphic_13">
        <circle cx="47.060706" cy="62.148405" r="6.00000958741137" fill="#e789c3"/>
      </g>
      <g id="Graphic_12">
        <circle cx="24.157385" cy="48.740464" r="6.00000958741138" fill="#e5c494"/>
      </g>
      <g id="Graphic_20">
        <path d="M 10.65332 147.31051 L 83.15332 147.31051 C 88.67617 147.31051 93.15332 151.78766 93.15332 157.31051 L 93.15332 178.19573 C 93.15332 183.71858 88.67617 188.19573 83.15332 188.19573 L 10.65332 188.19573 C 5.130473 188.19573 .6533203 183.71858 .6533203 178.19573 L .6533203 157.31051 C .6533203 151.78766 5.130473 147.31051 10.65332 147.31051 Z" stroke="#929292" stroke-linecap="round" stroke-linejoin="round" stroke-width="1"/>
      </g>
      <g id="Graphic_17">
        <circle cx="46.90332" cy="167.75312" r="6.00000958741137" fill="#fc8d62"/>
      </g>
      <g id="Graphic_21">
        <path d="M 179.38314 34.78949 L 232.66667 34.78949 C 238.1895 34.78949 242.66667 39.266644 242.66667 44.78949 L 242.66667 179.2963 C 242.66667 184.81915 238.1895 189.2963 232.66667 189.2963 L 179.38314 189.2963 C 173.8603 189.2963 169.38314 184.81915 169.38314 179.2963 L 169.38314 44.78949 C 169.38314 39.266644 173.8603 34.78949 179.38314 34.78949 Z" stroke="#929292" stroke-linecap="round" stroke-linejoin="round" stroke-dasharray="2.0,2.0" stroke-width="1"/>
      </g>
      <g id="Graphic_26">
        <path d="M 230.02088 51.98388 L 230.00795 51.970944 L 222.79898 45.037397 C 220.90715 43.21229 218.3795 42.19474 215.75083 42.20002 C 215.56598 42.25178 214.9523 42.06878 214.8266 42.754557 C 214.3905 46.02515 211.67698 48.515344 208.38104 48.669607 C 205.0844 48.51621 202.36986 46.02581 201.93364 42.754557 C 201.8098 42.07063 201.19426 42.25178 201.00941 42.20002 C 198.38137 42.19522 195.85448 43.212737 193.9631 45.037397 L 186.7412 51.98388 C 186.0196 52.705704 186.0196 53.875775 186.7412 54.597596 L 191.037 58.8934 C 191.6993 59.568425 192.76707 59.626944 193.49915 59.02834 L 195.80047 57.24828 C 196.08052 57.03154 196.4598 56.993874 196.777 57.1513 C 197.0942 57.30872 197.29358 57.63355 197.29033 57.98766 L 197.29033 75.47218 C 197.29033 76.49305 198.1179 77.32063 199.13878 77.32063 L 217.6233 77.32063 C 218.64418 77.32063 219.47176 76.49305 219.47176 75.47218 L 219.47176 57.980265 C 219.46851 57.62616 219.66788 57.301326 219.9851 57.1439 C 220.3023 56.98648 220.68157 57.024146 220.96162 57.240884 L 223.23706 58.99876 C 223.97106 59.60939 225.04933 59.56052 225.72508 58.88601 L 230.02088 54.5902 C 230.73757 53.869236 230.73757 52.70485 230.02088 51.98388 Z" fill="#e5c494"/>
      </g>
      <g id="Graphic_27">
        <path d="M 224.38994 154.01359 C 222.66405 153.61559 221.44088 152.07956 221.4394 150.30838 L 221.4394 145.82464 C 221.4425 144.85581 220.8949 143.96936 220.02716 143.53849 L 214.15504 140.60328 C 213.96452 140.5077 213.74508 140.48704 213.54006 140.54536 C 211.6777 141.08323 209.7495 141.35902 207.81104 141.36476 C 205.87258 141.35902 203.94437 141.08323 202.08202 140.54536 C 201.877 140.48704 201.65756 140.5077 201.46704 140.60328 L 195.59491 143.53849 C 194.72717 143.96936 194.17958 144.85581 194.18268 145.82464 L 194.18268 150.30838 C 194.1812 152.07956 192.95803 153.61559 191.23214 154.01359 C 190.46364 154.19688 189.922 154.8845 189.92381 155.67454 L 189.92381 176.06428 C 189.99997 177.02212 190.54624 177.87982 191.38205 178.35384 C 193.83749 180.22625 196.81377 181.28998 199.89977 181.39808 C 201.5885 181.39457 203.25439 181.0078 204.77191 180.26692 C 204.89984 180.20539 204.9887 180.08416 205.00887 179.94364 C 205.02904 179.80313 204.97787 179.6618 204.87242 179.56677 C 204.39908 179.16195 203.9671 178.71114 203.58284 178.22096 C 203.19784 177.6605 202.7004 177.17499 202.7004 176.49187 L 202.7004 159.36272 C 202.70036 158.66238 203.26413 158.09253 203.96443 158.08506 C 204.71286 157.93791 205.36605 157.48537 205.76678 156.83636 C 205.98934 156.55809 206.01517 156.1707 205.83152 155.86534 C 204.09197 152.67393 202.99247 149.17349 202.59478 145.5606 C 202.5576 145.2858 202.65651 145.0101 202.85991 144.82161 C 203.0633 144.63313 203.34573 144.55546 203.6169 144.61342 C 204.9967 144.89943 206.40192 145.04498 207.81104 145.04783 C 209.22406 145.04578 210.63325 144.90081 212.0171 144.61513 C 212.28926 144.5567 212.57282 144.63496 212.7765 144.82472 C 212.98017 145.01448 213.07827 145.29179 213.03922 145.56741 C 212.27944 151.01875 209.86722 158.26564 205.75316 160.20086 C 205.45435 160.34156 205.26382 160.6423 205.26424 160.97257 L 205.26424 175.21932 C 205.26425 176.0085 205.53821 176.77318 206.03935 177.38282 C 207.41457 179.02828 209.2279 180.25037 211.26923 180.90746 C 212.3026 181.19407 213.37057 181.3368 214.44294 181.33164 C 217.88227 181.19464 221.23047 180.18643 224.1736 178.40154 C 225.08059 177.9694 225.67165 177.06835 225.70678 176.06428 L 225.70678 155.67454 C 225.70766 154.88197 225.16182 154.1935 224.38994 154.01359 Z M 209.51458 172.45446 C 208.57374 172.45446 207.81104 171.69176 207.81104 170.75092 C 207.81104 169.81008 208.57374 169.04737 209.51458 169.04737 C 210.45542 169.04737 211.21813 169.81008 211.21813 170.75092 C 211.21813 171.69176 210.45542 172.45446 209.51458 172.45446 Z M 209.51458 166.49206 C 208.57374 166.49206 207.81104 165.72935 207.81104 164.78851 C 207.81104 163.84767 208.57374 163.08497 209.51458 163.08497 C 210.45542 163.08497 211.21813 163.84767 211.21813 164.78851 C 211.21813 165.72935 210.45542 166.49206 209.51458 166.49206 Z" fill="#8ea0cb"/>
      </g>
      <g id="Graphic_28">
        <path d="M 220.63867 118.01054 C 220.77556 115.89072 221.39996 113.83111 222.46324 111.99214 C 224.2897 108.21159 226.1714 104.31106 220.45774 98.30028 C 220.28943 98.12363 220.19535 97.88911 220.1949 97.64511 L 220.1949 87.04245 C 220.1949 85.99059 219.3422 85.13789 218.29036 85.13789 C 217.2385 85.13789 216.3858 85.99059 216.3858 87.04245 L 216.3858 99.27351 C 216.38598 99.55382 216.26266 99.81997 216.0487 100.00105 C 213.6183 101.62095 210.7327 102.41928 207.8153 102.2789 C 204.89705 102.41704 202.01139 101.61602 199.5819 99.99343 C 199.36995 99.81408 199.24683 99.55115 199.2448 99.27351 L 199.2448 87.04245 C 199.2448 85.99059 198.3921 85.13789 197.34023 85.13789 C 196.28838 85.13789 195.43568 85.99059 195.43568 87.04245 L 195.43568 97.64511 C 195.43524 97.88911 195.34116 98.12363 195.17285 98.30028 C 189.45918 104.31106 191.34088 108.20397 193.16735 111.99214 C 194.23063 113.83111 194.85503 115.89072 194.99192 118.01054 C 195.03644 121.1766 194.30333 124.30523 192.8569 127.12193 C 192.45642 127.9054 192.48372 128.83912 192.92928 129.59786 C 193.35983 130.35432 194.15422 130.83095 195.0243 130.85486 L 220.6082 130.85486 C 221.47786 130.83476 222.27318 130.35974 222.7032 129.60357 C 223.14867 128.84496 223.17667 127.9116 222.7775 127.12765 C 221.32862 124.30965 220.59416 121.17888 220.63867 118.01054 Z" fill="#e789c3"/>
      </g>
      <g id="Graphic_30">
        <path d="M 337.5 34.78949 L 420.5 34.78949 C 426.02285 34.78949 430.5 39.266644 430.5 44.78949 L 430.5 179.2963 C 430.5 184.81915 426.02285 189.2963 420.5 189.2963 L 337.5 189.2963 C 331.97715 189.2963 327.5 184.81915 327.5 179.2963 L 327.5 44.78949 C 327.5 39.266644 331.97715 34.78949 337.5 34.78949 Z" stroke="#929292" stroke-linecap="round" stroke-linejoin="round" stroke-dasharray="1.0,5.0" stroke-width="1"/>
      </g>
      <g id="Graphic_31">
        <path d="M 385.79794 50.78388 L 385.785 50.770943 L 378.57604 43.837396 C 376.6842 42.01229 374.15657 40.99474 371.5279 41.00002 C 371.34304 41.051777 370.72936 40.86878 370.60366 41.554556 C 370.16757 44.82515 367.45404 47.315343 364.1581 47.469606 C 360.86146 47.31621 358.14692 44.82581 357.7107 41.554556 C 357.58685 40.87063 356.9713 41.051777 356.78647 41.00002 C 354.15843 40.99522 351.63154 42.012736 349.74017 43.837396 L 342.51827 50.78388 C 341.79666 51.505703 341.79666 52.675774 342.51827 53.397595 L 346.81407 57.6934 C 347.47635 58.368424 348.54413 58.42694 349.2762 57.82834 L 351.57753 56.04828 C 351.8576 55.83154 352.23685 55.79387 352.55406 55.951296 C 352.87127 56.10872 353.07064 56.43355 353.0674 56.78766 L 353.0674 74.272175 C 353.0674 75.29305 353.89497 76.12063 354.91584 76.12063 L 373.40037 76.12063 C 374.42124 76.12063 375.24882 75.29305 375.24882 74.272175 L 375.24882 56.780264 C 375.24557 56.42616 375.44494 56.101325 375.76215 55.9439 C 376.07936 55.78648 376.45863 55.824145 376.73868 56.04088 L 379.0141 57.79876 C 379.7481 58.409386 380.8264 58.36052 381.50214 57.686006 L 385.79794 53.3902 C 386.51463 52.669235 386.51463 51.50485 385.79794 50.78388 Z" fill="#e5c494"/>
      </g>
      <g id="Group_40">
        <g id="Graphic_37">
          <path d="M 419.80146 79.02657 L 412.4382 86.38984 C 411.94995 86.87827 411.28764 87.15269 410.59704 87.15269 C 409.90643 87.15269 409.24413 86.87827 408.7559 86.38984 L 389.721 67.29939 C 389.23265 66.812425 388.9582 66.151135 388.95823 65.4615 L 388.95823 58.08781 C 388.95823 57.39739 389.2325 56.735244 389.7207 56.24704 C 390.2089 55.75884 390.87105 55.48457 391.56147 55.48457 L 398.92995 55.48457 C 399.61814 55.485404 400.278 55.75871 400.76524 56.244716 L 419.80146 75.34688 C 420.81685 76.3633 420.81685 78.01015 419.80146 79.02657 Z" stroke="#929292" stroke-linecap="round" stroke-linejoin="round" stroke-width=".75"/>
        </g>
        <g id="Graphic_36">
          <circle cx="395.45723" cy="61.990074" r="2.60324752283191" stroke="#929292" stroke-linecap="round" stroke-linejoin="round" stroke-width=".75"/>
        </g>
        <g id="Line_35">
          <line x1="386.33546" y1="52.86961" x2="394.796" y2="61.33015" stroke="#929292" stroke-linecap="round" stroke-linejoin="round" stroke-width=".75"/>
        </g>
        <g id="Graphic_38">
          <text transform="translate(402.49537 61.09394) rotate(45)" fill="#929292">
            <tspan font-family="Helvetica" font-weight="bold" font-size="8" fill="#929292" x="0" y="8">NFT-1</tspan>
          </text>
        </g>
      </g>
      <g id="Graphic_46">
        <path d="M 385.79794 92.93657 L 385.785 92.92363 L 378.57604 85.99008 C 376.6842 84.16498 374.15657 83.14742 371.5279 83.15271 C 371.34304 83.20446 370.72936 83.02147 370.60366 83.70724 C 370.16757 86.97784 367.45404 89.46803 364.1581 89.62229 C 360.86146 89.4689 358.14692 86.97849 357.7107 83.70724 C 357.58685 83.02331 356.9713 83.20446 356.78647 83.15271 C 354.15843 83.1479 351.63154 84.16542 349.74017 85.99008 L 342.51827 92.93657 C 341.79666 93.65839 341.79666 94.82846 342.51827 95.55028 L 346.81407 99.84609 C 347.47635 100.52111 348.54413 100.57963 349.2762 99.98102 L 351.57753 98.20096 C 351.8576 97.98422 352.23685 97.94656 352.55406 98.10398 C 352.87127 98.2614 353.07064 98.58624 353.0674 98.94034 L 353.0674 116.42486 C 353.0674 117.44573 353.89497 118.27331 354.91584 118.27331 L 373.40037 118.27331 C 374.42124 118.27331 375.24882 117.44573 375.24882 116.42486 L 375.24882 98.93295 C 375.24557 98.57884 375.44494 98.25401 375.76215 98.09659 C 376.07936 97.93917 376.45863 97.97683 376.73868 98.19357 L 379.0141 99.95145 C 379.7481 100.56207 380.8264 100.5132 381.50214 99.83869 L 385.79794 95.54289 C 386.51463 94.82192 386.51463 93.65753 385.79794 92.93657 Z" fill="#e5c494"/>
      </g>
      <g id="Graphic_52">
        <path d="M 385.79794 150.11115 L 385.785 150.09821 L 378.57604 143.16466 C 376.6842 141.33956 374.15657 140.322 371.5279 140.32729 C 371.34304 140.37905 370.72936 140.19605 370.60366 140.88182 C 370.16757 144.15242 367.45404 146.64261 364.1581 146.79687 C 360.86146 146.64348 358.14692 144.15308 357.7107 140.88182 C 357.58685 140.1979 356.9713 140.37905 356.78647 140.32729 C 354.15843 140.32249 351.63154 141.34 349.74017 143.16466 L 342.51827 150.11115 C 341.79666 150.83297 341.79666 152.00304 342.51827 152.72486 L 346.81407 157.02067 C 347.47635 157.6957 348.54413 157.75421 349.2762 157.1556 L 351.57753 155.37554 C 351.8576 155.1588 352.23685 155.12114 352.55406 155.27856 C 352.87127 155.43599 353.07064 155.76082 353.0674 156.11493 L 353.0674 173.59944 C 353.0674 174.62032 353.89497 175.4479 354.91584 175.4479 L 373.40037 175.4479 C 374.42124 175.4479 375.24882 174.62032 375.24882 173.59944 L 375.24882 156.10753 C 375.24557 155.75342 375.44494 155.4286 375.76215 155.27117 C 376.07936 155.11375 376.45863 155.15141 376.73868 155.36815 L 379.0141 157.12603 C 379.7481 157.73665 380.8264 157.68779 381.50214 157.01327 L 385.79794 152.71747 C 386.51463 151.9965 386.51463 150.83212 385.79794 150.11115 Z" fill="#e5c494"/>
      </g>
      <g id="Group_56">
        <g id="Graphic_55">
          <circle cx="364.15626" cy="125.80536" r="1.49999698553665" fill="#999"/>
        </g>
        <g id="Graphic_54">
          <circle cx="364.15626" cy="129.8438" r="1.49999698553665" fill="#999"/>
        </g>
        <g id="Graphic_53">
          <circle cx="364.15626" cy="133.88223" r="1.49999698553665" fill="#999"/>
        </g>
      </g>
      <g id="Line_57">
        <line x1="93.15332" y1="56.031975" x2="162.08665" y2="55.99757" marker-end="url(#SharpArrow_Marker)" stroke="#a5a5a5" stroke-linecap="round" stroke-linejoin="round" stroke-width="1"/>
      </g>
      <g id="Line_58">
        <line x1="219.33333" y1="71.83333" x2="320.5974" y2="71.83333" marker-end="url(#SharpArrow_Marker)" stroke="#a5a5a5" stroke-linecap="round" stroke-linejoin="round" stroke-width="1"/>
      </g>
      <g id="Graphic_59">
        <text transform="translate(101.31255 62)" fill="#a5a5a5">
          <tspan font-family="Helvetica" font-size="13" fill="#a5a5a5" x="0" y="13">consists</tspan>
          <tspan font-family="Helvetica" font-size="13" fill="#a5a5a5" x="18.059082" y="29">of</tspan>
        </text>
      </g>
      <g id="Graphic_60">
        <text transform="translate(257.80516 74.33333)" fill="#a5a5a5">
          <tspan font-family="Helvetica" font-size="13" fill="#a5a5a5" x="0" y="13">mintable</tspan>
          <tspan font-family="Helvetica" font-size="13" fill="#a5a5a5" x="14.088623" y="29">into</tspan>
        </text>
      </g>
      <g id="Group_61">
        <g id="Graphic_65">
          <path d="M 419.80146 121.17171 L 412.4382 128.53499 C 411.94995 129.02342 411.28764 129.29783 410.59704 129.29783 C 409.90643 129.29783 409.24413 129.02342 408.7559 128.53499 L 389.721 109.44454 C 389.23265 108.95757 388.9582 108.29628 388.95823 107.60665 L 388.95823 100.23296 C 388.95823 99.54254 389.2325 98.88039 389.7207 98.39219 C 390.2089 97.90399 390.87105 97.62972 391.56147 97.62972 L 398.92995 97.62972 C 399.61814 97.63055 400.278 97.90385 400.76524 98.38986 L 419.80146 117.49203 C 420.81685 118.50845 420.81685 120.1553 419.80146 121.17171 Z" stroke="#929292" stroke-linecap="round" stroke-linejoin="round" stroke-width=".75"/>
        </g>
        <g id="Graphic_64">
          <circle cx="395.45723" cy="104.13522" r="2.60324752283191" stroke="#929292" stroke-linecap="round" stroke-linejoin="round" stroke-width=".75"/>
        </g>
        <g id="Line_63">
          <line x1="386.33546" y1="95.01476" x2="394.796" y2="103.4753" stroke="#929292" stroke-linecap="round" stroke-linejoin="round" stroke-width=".75"/>
        </g>
        <g id="Graphic_62">
          <text transform="translate(402.49537 103.23909) rotate(45)" fill="#929292">
            <tspan font-family="Helvetica" font-weight="bold" font-size="8" fill="#929292" x="0" y="8">NFT-2</tspan>
          </text>
        </g>
      </g>
      <g id="Group_66">
        <g id="Graphic_70">
          <path d="M 419.80146 177.95696 L 412.4382 185.32023 C 411.94995 185.80866 411.28764 186.08308 410.59704 186.08308 C 409.90643 186.08308 409.24413 185.80866 408.7559 185.32023 L 389.721 166.22978 C 389.23265 165.74282 388.9582 165.08153 388.95823 164.3919 L 388.95823 157.0182 C 388.95823 156.32778 389.2325 155.66564 389.7207 155.17743 C 390.2089 154.68923 390.87105 154.41496 391.56147 154.41496 L 398.92995 154.41496 C 399.61814 154.4158 400.278 154.6891 400.76524 155.1751 L 419.80146 174.27727 C 420.81685 175.2937 420.81685 176.94054 419.80146 177.95696 Z" stroke="#929292" stroke-linecap="round" stroke-linejoin="round" stroke-width=".75"/>
        </g>
        <g id="Graphic_69">
          <circle cx="395.45723" cy="160.92047" r="2.6032475228319" stroke="#929292" stroke-linecap="round" stroke-linejoin="round" stroke-width=".75"/>
        </g>
        <g id="Line_68">
          <line x1="386.33546" y1="151.8" x2="394.796" y2="160.26054" stroke="#929292" stroke-linecap="round" stroke-linejoin="round" stroke-width=".75"/>
        </g>
        <g id="Graphic_67">
          <text transform="translate(402.3407 159.86965) rotate(45)" fill="#929292">
            <tspan font-family="Helvetica" font-weight="bold" font-size="8" fill="#929292" x="0" y="8">NFT-L</tspan>
          </text>
        </g>
      </g>
    </g>
  </g>
</svg>
